<?xml version="1.0" standalone="no"?>
<!DOCTYPE svg PUBLIC "-//W3C//DTD SVG 20010904//EN"
 "http://www.w3.org/TR/2001/REC-SVG-20010904/DTD/svg10.dtd">
<svg version="1.0" xmlns="http://www.w3.org/2000/svg"
 width="339.000000pt" height="265.000000pt" viewBox="0 0 339.000000 265.000000"
 preserveAspectRatio="xMidYMid meet">

<g transform="translate(0.000000,265.000000) scale(0.100000,-0.100000)"
fill="#000000" stroke="none">
<path d="M903 2258 c-27 -24 -89 -74 -137 -113 -48 -38 -107 -86 -130 -105
-24 -19 -69 -56 -102 -82 -32 -26 -96 -77 -142 -114 l-82 -66 0 -715 0 -716
48 7 c26 3 92 11 147 17 55 5 138 14 185 19 47 5 132 13 190 19 58 5 139 15
180 20 41 6 129 15 195 21 66 6 145 15 175 20 30 5 93 12 140 15 47 3 110 11
140 16 47 9 93 5 330 -31 151 -22 298 -44 325 -48 l50 -7 3 -128 c2 -104 5
-127 17 -127 12 0 15 21 15 120 l0 120 28 0 c26 0 314 -42 478 -70 34 -5 71
-10 83 -10 l21 0 0 585 0 585 -195 97 -195 98 0 152 c0 129 -2 153 -15 153
-13 0 -15 -22 -15 -140 0 -77 -4 -140 -8 -140 -5 0 -47 20 -93 44 l-84 43 -3
237 c-2 201 -5 236 -17 236 -13 0 -15 -33 -15 -225 0 -124 -2 -225 -5 -225 -3
0 -149 72 -326 160 l-320 161 -337 69 c-185 39 -356 75 -379 80 -74 18 -96 13
-150 -32z m332 -38 c110 -22 272 -56 360 -74 l160 -33 3 -790 2 -791 -72 -5
c-103 -8 -248 -23 -348 -36 -211 -26 -258 -31 -302 -31 l-48 0 0 906 0 906 23
-5 c12 -3 112 -24 222 -47z m-290 -1767 c-3 -8 -25 -13 -62 -13 -32 -1 -89 -5
-128 -11 -81 -11 -226 -27 -337 -35 l-78 -7 0 686 0 685 39 33 c21 19 78 66
126 104 49 39 122 98 163 133 41 35 98 81 126 103 28 21 74 57 101 79 l50 39
3 -892 c1 -491 0 -898 -3 -904z m1173 1479 l302 -152 0 -450 c0 -248 -3 -450
-8 -450 -4 0 -30 19 -57 41 -82 68 -136 102 -146 92 -9 -9 58 -67 164 -142
l47 -34 0 -194 0 -193 -28 0 c-16 0 -69 7 -118 15 -147 24 -472 75 -478 75 -3
0 -6 349 -6 776 0 615 3 775 13 772 6 -2 148 -72 315 -156z m433 -218 l89 -46
0 -629 c0 -346 -3 -629 -6 -629 -3 0 -46 7 -95 16 l-89 17 0 658 c0 363 3 659
6 659 3 0 45 -21 95 -46z m307 -157 l172 -88 0 -556 0 -556 -72 7 c-39 4 -108
14 -152 22 -45 8 -93 14 -108 14 l-28 0 0 348 0 348 58 57 58 57 82 0 c66 0
82 3 82 15 0 12 -15 15 -72 15 l-72 0 58 59 c36 37 56 64 51 71 -5 8 -47 -28
-126 -106 l-119 -119 0 253 c0 140 3 252 8 250 4 -1 85 -43 180 -91z"/>
</g>
</svg>
